<svg width="17" height="4" viewBox="0 0 17 4" fill="none" xmlns="http://www.w3.org/2000/svg">
<path d="M4.41941 0.303787C5.03813 0.35442 5.65685 0.481009 6.21664 0.658225C6.86482 0.886074 7.513 1.11393 8.16118 1.39241C8.7799 1.67089 9.36916 1.89873 9.98787 2.07595C11.078 2.4557 12.0208 2.48102 12.8163 2.17722C13.1698 2.05064 13.4939 1.89873 13.7591 1.6962C14.0537 1.46835 14.3189 1.21518 14.6135 0.936701C14.9081 0.632902 15.1733 0.303799 15.409 0L17 0.88608C16.7054 1.24051 16.4402 1.56962 16.1161 1.92405C15.7626 2.3038 15.3796 2.65823 14.9965 2.93672C14.5546 3.24051 14.0832 3.49368 13.5529 3.69621C12.9931 3.89875 12.3744 4 11.6967 4C10.8718 4 10.0468 3.87342 9.31022 3.62025C8.63258 3.41772 7.98441 3.16455 7.30676 2.86075C6.71751 2.63291 6.09879 2.40507 5.50953 2.17722C5.18544 2.07595 4.83189 2 4.41941 1.94936C4.01849 1.91708 3.79661 1.9192 3.38821 1.94936C2.82428 2.17138 2.71991 2.31061 2.50433 2.55697C2.18024 2.93672 1.91508 3.29116 1.73831 3.64559L0 2.96203C0.32409 2.32911 0.766038 1.74685 1.29637 1.24052C1.62046 0.911403 2.03293 0.658231 2.5338 0.506331L3.97747 0.303787H4.41941Z" fill="#E7C9A6"/>
</svg>
