<svg width="63" height="48" viewBox="0 0 63 48" fill="none" xmlns="http://www.w3.org/2000/svg">
<path d="M6.27758 30.566C4.48399 19.4717 7.17438 4.75472 28.4733 3.84906L27.3523 0C6.27758 2.71699 0 16.0755 0 29.6604C0 39.3962 2.69039 48 15.0214 48C23.3167 48 28.6975 44.8302 28.6975 34.6415C28.6975 24.9057 22.8683 23.3208 16.8149 23.3208C10.3132 23.3208 7.84697 25.1321 6.27758 30.566ZM40.5801 30.566C38.7865 19.4717 41.4769 4.75472 62.7758 3.84906L61.6548 0C40.5801 2.71699 34.3025 16.0755 34.3025 29.6604C34.3025 39.3962 36.9929 48 49.3238 48C57.6192 48 63 44.8302 63 34.6415C63 24.9057 57.1708 23.3208 51.1174 23.3208C44.6157 23.3208 42.1495 25.1321 40.5801 30.566Z" fill="#DEB37E"/>
</svg>
