<svg xmlns="http://www.w3.org/2000/svg" xmlns:xlink="http://www.w3.org/1999/xlink"><symbol viewBox="0 0 14 17" id="address" xmlns="http://www.w3.org/2000/svg"><path fill-rule="evenodd" clip-rule="evenodd" d="M2.05 2.05a7 7 0 119.9 9.9L7 16.9l-4.95-4.95a7.001 7.001 0 010-9.9zM7 9a2 2 0 100-4 2 2 0 000 4z"/></symbol><symbol viewBox="0 0 8 5" id="arrow" xmlns="http://www.w3.org/2000/svg"><path d="M4.354.646a.5.5 0 00-.708 0L.464 3.828a.5.5 0 10.708.708L4 1.707l2.828 2.829a.5.5 0 10.708-.708L4.354.646zM4.5 2V1h-1v1h1z"/></symbol><symbol viewBox="0 0 11 11" id="arrow2" xmlns="http://www.w3.org/2000/svg"><path d="M10.434 1a.85.85 0 00-.85-.85h-7.65a.85.85 0 100 1.7h6.8v6.8a.85.85 0 101.7 0V1zm-8.833 9.185l8.584-8.584L8.983.399.4 8.983l1.202 1.202z"/></symbol><symbol viewBox="0 0 16 12" id="mail" xmlns="http://www.w3.org/2000/svg"><path d="M.003 1.884L8 5.882l7.997-3.998A2 2 0 0014 0H2A2 2 0 00.003 1.884z"/><path d="M16 4.118l-8 4-8-4V10a2 2 0 002 2h12a2 2 0 002-2V4.118z"/></symbol><symbol viewBox="0 0 14 24" id="next" xmlns="http://www.w3.org/2000/svg"><path d="M13.06 13.06a1.5 1.5 0 000-2.12L3.516 1.392a1.5 1.5 0 10-2.122 2.122L9.88 12l-8.486 8.485a1.5 1.5 0 102.122 2.122l9.546-9.546zM11 13.5h1v-3h-1v3z"/></symbol><symbol viewBox="0 0 14 14" id="phone" xmlns="http://www.w3.org/2000/svg"><path d="M0 .875A.875.875 0 01.875 0h1.884a.875.875 0 01.863.732l.647 3.88a.875.875 0 01-.472.928l-1.355.676a9.658 9.658 0 005.342 5.342l.677-1.355a.875.875 0 01.927-.472l3.88.647a.874.874 0 01.732.863v1.884a.875.875 0 01-.875.875h-1.75C5.093 14 0 8.908 0 2.625V.875z" fill-opacity=".47"/></symbol><symbol viewBox="0 0 14 24" id="prev" xmlns="http://www.w3.org/2000/svg"><path d="M.94 13.06a1.5 1.5 0 010-2.12l9.545-9.547a1.5 1.5 0 112.122 2.122L4.12 12l8.486 8.485a1.5 1.5 0 11-2.122 2.122L.94 13.06zM3 13.5H2v-3h1v3z"/></symbol><symbol viewBox="0 0 15 15" id="recall" xmlns="http://www.w3.org/2000/svg"><path d="M14.929.578a.936.936 0 00-.202-.301l-.004-.004a.934.934 0 00-.66-.273h-3.75a.938.938 0 000 1.875h1.486L8.712 4.962a.937.937 0 001.326 1.326L13.125 3.2v1.486a.938.938 0 001.875 0V.938a.937.937 0 00-.071-.359z"/><path d="M0 .938A.937.937 0 01.938 0h2.018a.937.937 0 01.924.784l.694 4.158a.938.938 0 01-.506.993l-1.451.725a10.348 10.348 0 005.723 5.723l.726-1.45a.938.938 0 01.992-.507l4.158.694a.937.937 0 01.784.924v2.018a.938.938 0 01-.938.938h-1.874C5.455 15 0 9.544 0 2.812V.938z"/></symbol><symbol viewBox="0 0 16 16" id="user" xmlns="http://www.w3.org/2000/svg"><path fill-rule="evenodd" clip-rule="evenodd" d="M16 8A8 8 0 11-.001 8 8 8 0 0116 8zm-6-3a2 2 0 11-4 0 2 2 0 014 0zM8 9a5 5 0 00-4.546 2.916A5.986 5.986 0 008 14a5.987 5.987 0 004.546-2.084A5 5 0 008 9z" fill-opacity=".47"/></symbol></svg>